<?xml version="1.0" standalone="no"?>
<!DOCTYPE svg PUBLIC "-//W3C//DTD SVG 20010904//EN"
 "http://www.w3.org/TR/2001/REC-SVG-20010904/DTD/svg10.dtd">
<svg version="1.0" xmlns="http://www.w3.org/2000/svg"
 width="360.000000pt" height="360.000000pt" viewBox="0 0 360.000000 360.000000"
 preserveAspectRatio="xMidYMid meet">
<metadata>
Created by potrace 1.11, written by Peter Selinger 2001-2013
</metadata>
<g transform="translate(0.000000,360.000000) scale(0.100000,-0.100000)"
fill="#000000" stroke="none">
<path d="M0 1800 l0 -1800 1800 0 1800 0 0 1800 0 1800 -1800 0 -1800 0 0
-1800z m1888 1151 c211 -108 128 -452 -109 -451 -70 1 -126 26 -172 80 -56 65
-71 146 -45 233 16 53 92 134 143 153 51 18 130 12 183 -15z m69 -763 l23 -21
0 -623 c0 -431 3 -630 11 -647 14 -31 61 -53 144 -68 l65 -11 0 -84 0 -84
-400 0 -400 0 0 84 0 85 45 5 c25 3 65 8 89 11 85 11 81 -19 84 538 2 341 -1
500 -8 518 -26 61 -83 93 -190 105 l-60 7 0 84 c0 58 4 85 13 88 12 4 423 31
511 34 39 1 55 -4 73 -21z"/>
</g>
</svg>
